# xmcd
#
# Track frame offsets: 
#        150
#        19727
#        37925
#        56532
#
# Disc length: 1121 seconds
#
# Revision: 3
# Processed by: cddbd v1.5.2PL0 Copyright (c) Steve Scherf et al.
# Submitted via: ExactAudioCopy v0.99pb4
#
DISCID=26045f04
DTITLE=Lighthouse Family - Lifted
DYEAR=1996
DGENRE=Pop
TTITLE0=Lifted (7'' Mix)
TTITLE1=Lifted (Linslee Extended Mix)
TTITLE2=Lifted (Linslee Instrumental)
TTITLE3=Lifted (Nostalgia Freaks Dub)
EXTD=
EXTT0=
EXTT1=
EXTT2=
EXTT3=
PLAYORDER=
